<?xml version="1.0" encoding="UTF-8" standalone="no"?>
<svg width="652px" height="489px" viewBox="0 0 652 489" version="1.1" xmlns="http://www.w3.org/2000/svg" xmlns:xlink="http://www.w3.org/1999/xlink" xmlns:sketch="http://www.bohemiancoding.com/sketch/ns">
    <!-- Generator: Sketch 3.3.1 (12002) - http://www.bohemiancoding.com/sketch -->
    <title>Untitled 4</title>
    <desc>Created with Sketch.</desc>
    <defs></defs>
    <g id="Page-1" stroke="none" stroke-width="1" fill="none" fill-rule="evenodd" sketch:type="MSPage">
        <g id="Illicit_Delights_option3_Final" sketch:type="MSLayerGroup">
            <path d="M348.425,155.335 L355.518,156.551 L356.488,155.11 C354.139,154.659 351.811,154.215 349.478,153.773 L348.425,155.335" id="Fill-5" fill="#40BDE2" sketch:type="MSShapeGroup"></path>
            <path d="M417.264,212.348 C415.969,214.191 413.876,215.629 411.009,216.661 C407.41,217.956 402.589,218.611 396.572,218.611 L396.569,218.611 C376.296,218.61 345.716,211.085 318.735,204.443 C314.336,203.36 309.992,202.292 305.75,201.267 C265.596,191.569 249.856,166.147 249.671,165.842 C249.333,165.303 249.027,164.761 248.747,164.22 C244.492,155.995 246.661,147.669 249.355,141.983 C252.128,136.13 256.638,130.609 261.884,126.171 C255.196,181.616 398.237,203.627 422.405,200.53 C421.769,204.595 420.364,207.931 417.264,212.348 L417.264,212.348 Z M384.655,332.712 C380.785,333.96 373.512,336.103 364.073,337.987 L378.669,227.043 C382.063,226.497 385.309,225.944 388.311,225.406 L391.394,224.853 C393.166,224.942 394.9,224.999 396.568,224.999 L396.572,224.999 C400.667,224.999 404.307,224.714 407.508,224.144 L384.655,332.712 L384.655,332.712 Z M344.702,340.871 L355.496,230.275 C361.722,229.551 368.077,228.678 374.107,227.759 L363.94,338.013 C358.227,339.149 351.728,340.185 344.702,340.871 L344.702,340.871 Z M329.948,341.693 L332.578,232.119 C337.061,231.988 342.114,231.635 347.431,231.13 L344.561,340.885 C339.893,341.338 334.995,341.63 329.948,341.693 L329.948,341.693 Z M327.979,225.783 C315.459,225.651 299.166,224.417 284.073,222.595 C283.346,222.507 282.621,222.418 281.899,222.327 C281.753,222.309 281.609,222.289 281.462,222.271 L260.076,218.945 C251.991,217.381 245.736,215.686 242.829,214.014 C242.451,213.797 242.088,213.55 241.724,213.303 C234.4,208.32 230.07,197.545 230.084,189.513 C230.089,186.484 230.637,183.356 231.708,180.462 C246.268,215.423 320.725,223.174 359.197,223.387 C347.681,224.838 336.282,225.856 327.979,225.783 L327.979,225.783 Z M314.241,341.149 L308.643,231.333 C312.919,231.628 317.026,231.85 320.84,231.993 L327.445,341.706 C322.915,341.693 318.496,341.491 314.241,341.149 L314.241,341.149 Z M297.153,338.991 L284.807,229.119 C288.581,229.56 292.395,229.961 296.175,230.316 L309.038,340.658 C304.857,340.205 300.878,339.629 297.153,338.991 L297.153,338.991 Z M280.751,335.482 L260.56,225.537 C263.977,226.177 267.636,226.784 271.447,227.352 L291.453,337.93 C287.462,337.131 283.864,336.285 280.751,335.482 L280.751,335.482 Z M271.101,332.709 L259.346,276.862 L273.521,333.462 C272.611,333.186 271.797,332.932 271.101,332.709 L271.101,332.709 Z M411.607,168.452 C413.057,157.564 410.613,147.254 404.461,138.496 C399.171,130.965 391.375,124.859 381.774,120.651 L367.516,141.846 C380.739,146.19 391.753,148.656 395.178,148.896 C398.99,149.161 401.081,148.403 402.341,147.569 C404.96,153.189 406.039,159.417 405.44,165.994 C399.138,163.814 392.821,162.487 388.222,161.522 C378.371,159.377 368.319,157.388 358.351,155.47 C357.73,155.351 357.107,155.228 356.488,155.11 L355.518,156.551 L348.425,155.335 L349.478,153.773 C348.855,153.654 348.231,153.535 347.61,153.418 C346.54,153.214 345.457,153.007 344.392,152.806 L337.429,151.485 C323.821,148.568 291.687,137.539 284.842,123.764 C283.276,120.614 283.226,117.563 284.687,114.44 L284.753,114.296 L284.78,114.306 C287.344,108.008 293.395,102.088 295.675,99.857 C298.232,97.352 301.322,94.721 304.771,92.23 C301.972,112.456 331.481,128.603 357.722,138.411 L372.196,116.93 C347.921,107.432 334.147,98.116 331.235,89.212 C330.144,85.873 330.689,82.618 332.904,79.259 L336.846,73.279 L329.763,74.342 C317.063,76.249 302.649,84.083 291.207,95.294 C288.862,97.588 282.935,103.393 279.63,110.199 C265.586,112.798 250.343,124.98 243.583,139.247 C239.735,147.368 238.996,155.507 241.29,162.775 C229.747,166.068 223.71,178.34 223.697,189.503 C223.679,199.61 229.261,213.575 239.644,219.55 C240.11,219.819 240.642,220.085 241.223,220.349 L265.853,337.36 C265.853,337.36 293.706,347.802 327.881,347.802 C362.048,347.802 389.904,337.36 389.904,337.36 L414.123,222.305 C417.798,220.828 420.579,218.741 422.491,216.019 C428.944,206.825 429.286,200.543 429.31,191.053 C429.338,179.739 421.194,172.845 411.607,168.452 L411.607,168.452 Z" id="Fill-6" fill="#40BDE2" sketch:type="MSShapeGroup"></path>
            <path d="M411.536,114.549 L412.562,74.054 L444.338,126.227 L411.536,114.549 L411.536,114.549 Z M409.138,71.253 L409.137,71.295 L409.105,72.515 L409.074,73.774 L409.073,73.815 L408.086,112.745 L393.087,103.836 L390.079,102.048 L388.507,101.114 L387.556,100.388 L370.434,87.324 L401.08,74.065 L404.053,72.779 L406.464,71.735 L407.62,71.236 L408.491,70.859 L408.666,70.783 L408.697,70.804 L408.695,70.807 L408.828,70.896 L409.141,71.107 L409.138,71.253 L409.138,71.253 Z M354.628,154.755 L351.312,154.123 L385.601,103.29 L386.359,103.871 L386.346,103.891 L386.758,104.172 L386.775,104.15 L388.125,104.952 L354.628,154.755 L354.628,154.755 Z M344.379,58.738 L404.648,68.714 L367.472,84.798 L344.379,58.738 L344.379,58.738 Z M452.299,132.582 L452.33,132.563 L424.563,87.022 L424.554,87.027 L414.684,70.821 L414.484,70.495 L414.306,70.375 C414.754,69.817 415.17,69.242 415.54,68.692 C417.258,66.15 419.716,61.587 416.841,59.639 C416.354,59.31 415.778,59.136 415.176,59.136 C412.848,59.136 410.489,61.904 408.92,64.225 C408.569,64.746 408.188,65.354 407.828,66.004 L407.229,65.6 L388.139,62.44 L388.141,62.43 L335.515,53.691 L335.508,53.729 L335.23,53.683 L335.471,53.954 L334.942,57.137 L338.869,57.789 L364.097,86.258 L359.23,88.364 L360.618,91.571 L366.791,88.9 L382.82,101.163 L347.61,153.418 C348.231,153.535 348.855,153.654 349.478,153.773 L356.488,155.11 C357.107,155.228 357.73,155.351 358.351,155.47 L391.134,106.739 L407.984,116.749 L407.815,123.441 L409.562,123.485 L411.308,123.529 L411.443,118.193 L447.269,130.975 L449.346,134.381 L452.105,132.7 L452.445,132.821 L452.299,132.582 L452.299,132.582 Z" id="Fill-7" fill="#D13986" sketch:type="MSShapeGroup"></path>
            <path d="M409.029,71.222 L409.013,71.211 L409.019,71.219 L409.029,71.222" id="Fill-8" fill="#D13986" sketch:type="MSShapeGroup"></path>
            <path d="M108.13,371.451 C108.13,370.853 107.585,370.361 106.712,370.361 C106.112,370.361 105.403,370.47 104.151,370.47 C103.114,370.47 101.644,370.306 99.79,370.306 C98.971,370.306 98.319,370.47 97.775,370.906 C92.65,374.994 49.974,438.546 47.521,446.832 C47.302,447.377 47.302,449.611 47.302,450.047 C47.302,450.375 49.319,451.084 49.755,451.084 C49.81,451.136 49.919,451.136 50.028,451.136 C50.519,451.136 51.335,450.974 51.663,450.591 C51.88,450.484 52.427,450.591 52.753,450.484 C55.696,449.937 57.005,449.285 57.222,449.285 C57.821,449.121 58.312,448.74 59.349,447.048 C78.151,416.472 95.757,389.984 108.021,371.943 C108.13,371.779 108.13,371.615 108.13,371.451" id="Fill-9" fill="#40BDE2" sketch:type="MSShapeGroup"></path>
            <path d="M167.364,399.031 C171.505,399.031 176.192,393.689 176.192,389.656 C176.192,387.64 174.94,386.551 172.977,386.551 C168.509,386.551 164.147,391.455 164.147,395.816 C164.147,397.941 165.237,399.031 167.364,399.031" id="Fill-10" fill="#40BDE2" sketch:type="MSShapeGroup"></path>
            <path d="M104.8,402.084 C106.979,398.16 122.46,375.922 125.348,375.922 C125.784,375.922 125.893,376.302 125.893,376.738 C125.893,382.625 102.02,414.238 96.733,420.505 C98.696,414.564 101.747,407.533 104.8,402.084 M133.575,402.084 C135.755,398.16 151.233,375.922 154.122,375.922 C154.56,375.922 154.667,376.302 154.667,376.738 C154.667,382.625 130.796,414.238 125.509,420.505 C127.47,414.564 130.522,407.533 133.575,402.084 M273.419,393.363 C272.22,392.49 271.837,391.019 270.528,390.474 C270.093,390.31 268.839,390.255 267.532,390.255 C266.224,390.255 262.845,390.529 262.136,390.583 C262.954,389.221 267.64,382.189 267.64,381.318 C267.64,380.718 267.04,379.845 266.388,379.845 C265.515,379.845 265.515,379.3 264.151,379.3 C263.28,379.3 262.462,379.626 261.591,379.626 C260.446,379.626 260.337,379.845 259.683,380.718 C256.903,383.769 254.559,387.421 252.216,390.8 C247.093,391.019 252.434,390.8 247.309,391.019 C244.966,391.128 242.622,391.183 240.28,391.345 C239.981,391.373 239.604,391.466 239.188,391.603 C239.395,390.939 239.518,390.283 239.518,389.656 C239.518,387.64 238.266,386.551 236.304,386.551 C231.835,386.551 227.474,391.455 227.474,395.816 C227.474,397.941 228.564,399.031 230.69,399.031 C231.065,399.031 231.445,398.974 231.825,398.89 C232.351,400.5 234.882,400.939 236.245,400.939 L236.737,400.939 C237.936,400.939 246.11,399.904 246.165,399.957 C242.335,405.873 232.261,422.219 227.974,433.176 C225.181,435.745 219.327,443.343 213.849,443.343 C212.485,443.343 211.067,443.015 211.067,441.49 C211.067,438.875 213.849,434.949 215.155,432.769 C216.737,430.045 228.128,410.369 228.128,409.224 C228.128,407.533 225.894,404.863 224.095,404.863 C219.407,404.863 210.96,414.128 210.96,415.001 C210.96,416.253 213.194,417.345 213.194,418.597 C213.194,419.146 208.464,426.228 204.946,432.773 L204.806,432.879 C203.771,433.75 194.069,443.343 178.317,443.343 C172.54,443.343 170.958,439.801 170.958,436.802 C170.958,427.646 180.007,419.142 187.474,414.892 C189.382,413.693 192.052,412.439 194.396,412.439 C194.776,412.439 194.995,412.549 194.995,412.984 C194.995,415.001 191.726,417.562 191.726,419.361 C191.726,421.595 192.977,422.685 195.214,422.685 C199.464,422.685 204.042,415.109 204.042,411.349 C204.042,407.425 200.009,405.189 196.413,405.189 C180.602,405.189 164.316,419.836 162.565,435.289 C159.462,438.55 154.874,443.343 150.522,443.343 C149.159,443.343 147.741,443.015 147.741,441.49 C147.741,438.875 150.522,434.949 151.829,432.769 C153.411,430.045 164.802,410.369 164.802,409.224 C164.802,407.533 162.568,404.863 160.768,404.863 C156.081,404.863 147.634,414.128 147.634,415.001 C147.634,416.253 149.868,417.345 149.868,418.597 C149.868,419.257 143.015,429.388 139.671,436.648 C136.395,439.814 132.224,443.56 128.288,443.56 C124.964,443.56 122.401,441.599 122.401,438.111 C122.401,436.312 123.056,434.677 123.272,432.879 C132.54,422.578 163.716,385.896 163.716,373.359 C163.716,369.816 160.446,367.691 157.12,367.691 C149.653,367.691 139.243,380.99 132.54,390.474 C125.083,401.023 116.747,418.828 114.561,433.211 C111.292,435.851 105.161,443.56 99.513,443.56 C96.188,443.56 93.626,441.599 93.626,438.111 C93.626,436.312 94.28,434.677 94.499,432.879 C103.765,422.578 134.94,385.896 134.94,373.359 C134.94,369.816 131.671,367.691 128.347,367.691 C120.88,367.691 110.468,380.99 103.765,390.474 C95.098,402.738 85.233,424.812 85.233,439.91 C85.233,446.941 88.612,451.628 95.862,451.628 C102.268,451.628 109.796,448.002 114.323,443.353 C115.309,448.425 118.65,451.628 124.636,451.628 C129.429,451.628 134.847,449.595 139.169,446.627 C140.975,449.555 144.411,451.736 147.796,451.736 C152.473,451.736 159.337,449.023 163.911,444.07 C166.452,448.751 171.946,451.519 178.317,451.519 C182.358,451.519 194.073,448.592 201.282,443.378 C201.921,447.785 206.565,451.736 211.122,451.736 C215.536,451.736 221.902,449.326 226.448,444.892 C227.452,448.884 230.145,450.609 234.448,451.41 C234.938,451.519 235.429,451.574 235.973,451.574 C242.241,451.574 249.108,445.197 252.761,442.035 C254.45,440.564 255.214,439.31 255.214,437.238 C255.214,436.257 255.323,432.334 253.796,432.334 C252.434,432.334 242.95,443.234 237.718,443.234 C235.973,443.234 235.048,442.689 235.048,440.564 C235.048,439.964 235.155,439.256 235.265,438.437 C236.028,432.988 252.107,405.517 256.03,399.467 C261.046,399.195 264.97,398.65 269.983,398.16 C271.62,397.996 274.345,397.123 274.345,394.943 C274.345,394.125 273.964,393.798 273.419,393.363" id="Fill-11" fill="#40BDE2" sketch:type="MSShapeGroup"></path>
            <path d="M51.71,457.591 C51.549,457.591 51.179,457.591 50.768,457.435 C49.525,457.192 46.984,456.454 46.984,454.502 C46.984,451.704 47.181,450.974 47.312,450.628 C47.35,450.505 47.395,450.373 47.447,450.232 C47.797,450.497 48.706,450.84 49.296,450.998 C49.26,451.101 49.229,451.197 49.202,451.287 C48.984,451.832 48.984,454.066 48.984,454.502 C48.984,454.83 51.001,455.538 51.436,455.538 C51.491,455.591 51.601,455.591 51.71,455.591 C52.2,455.591 53.017,455.429 53.345,455.046 C53.561,454.939 54.109,455.046 54.435,454.939 C57.378,454.392 58.686,453.74 58.903,453.74 C59.503,453.576 59.993,453.195 61.03,451.503 C79.833,420.927 97.438,394.439 109.702,376.398 C109.811,376.234 109.811,376.07 109.811,375.906 C109.811,375.308 109.266,374.816 108.393,374.816 C107.821,374.816 107.148,374.916 105.997,374.925 C106.47,374.227 106.936,373.539 107.395,372.864 C107.408,372.863 107.421,372.862 107.435,372.861 C107.799,372.835 108.107,372.816 108.393,372.816 C110.342,372.816 111.811,374.144 111.811,375.906 C111.811,376.185 111.811,376.839 111.356,377.522 C94.074,402.946 77.715,428.189 62.735,452.549 C61.676,454.276 60.837,455.285 59.431,455.669 L59.219,455.727 L59.106,455.766 C58.452,455.997 57.098,456.472 54.889,456.888 C54.594,456.964 54.313,456.985 54.082,456.991 C53.113,457.555 51.98,457.591 51.71,457.591" id="Fill-12" fill="#163B48" sketch:type="MSShapeGroup"></path>
            <path d="M49.296,450.998 C48.706,450.84 47.797,450.497 47.447,450.232 C51.399,439.424 93.169,377.817 98.208,373.798 C99.081,373.1 100.148,372.761 101.472,372.761 C102.589,372.761 103.583,372.818 104.382,372.864 C104.953,372.897 105.447,372.925 105.833,372.925 C106.483,372.925 106.968,372.893 107.395,372.864 C106.936,373.539 106.47,374.227 105.997,374.925 L105.833,374.925 C104.796,374.925 103.325,374.761 101.472,374.761 C100.653,374.761 100.001,374.925 99.456,375.361 C94.387,379.404 52.578,441.628 49.296,450.998" id="Fill-13" fill="#40BDE2" sketch:type="MSShapeGroup"></path>
            <path d="M169.046,405.486 C165.828,405.486 163.829,403.488 163.829,400.271 C163.829,399.226 164.01,398.185 164.34,397.181 C164.609,398.007 165.157,398.559 165.979,398.832 C165.881,399.313 165.829,399.796 165.829,400.271 C165.829,402.396 166.919,403.486 169.046,403.486 C173.187,403.486 177.874,398.144 177.874,394.111 C177.874,392.597 177.168,391.606 175.986,391.206 C176.12,390.677 176.192,390.157 176.192,389.656 C176.192,389.492 176.184,389.333 176.168,389.181 C178.435,389.739 179.874,391.581 179.874,394.111 C179.874,398.972 174.521,405.486 169.046,405.486" id="Fill-14" fill="#163B48" sketch:type="MSShapeGroup"></path>
            <path d="M165.979,398.832 C165.157,398.559 164.609,398.007 164.34,397.181 C165.804,392.723 170.198,389.006 174.659,389.006 C175.194,389.006 175.698,389.066 176.168,389.181 C176.184,389.333 176.192,389.492 176.192,389.656 C176.192,390.157 176.12,390.677 175.986,391.206 C175.593,391.073 175.148,391.005 174.659,391.005 C170.678,391.005 166.781,394.899 165.979,398.832" id="Fill-15" fill="#40BDE2" sketch:type="MSShapeGroup"></path>
            <path d="M212.804,458.191 C208.289,458.191 203.772,455.042 201.852,450.96 C194.198,455.572 183.906,457.974 179.999,457.974 C173.804,457.974 168.482,455.645 165.268,451.634 C160.183,456.125 153.732,458.191 149.477,458.191 C146.166,458.191 142.707,456.472 140.36,453.774 C135.84,456.494 130.711,458.084 126.317,458.084 C120.946,458.084 116.978,455.68 115.036,451.376 C110.001,455.417 103.203,458.084 97.544,458.084 C89.636,458.084 84.915,452.955 84.915,444.365 C84.915,442.752 85.027,441.051 85.239,439.283 C85.235,439.493 85.233,439.702 85.233,439.91 C85.233,442.954 85.867,445.559 87.174,447.535 C88.089,452.769 91.448,456.083 97.544,456.083 C103.95,456.083 111.477,452.457 116.005,447.808 C116.991,452.88 120.331,456.083 126.317,456.083 C131.11,456.083 136.528,454.05 140.85,451.082 C142.657,454.009 146.093,456.191 149.477,456.191 C154.155,456.191 161.019,453.478 165.593,448.525 C168.134,453.207 173.628,455.974 179.999,455.974 C184.04,455.974 195.755,453.046 202.964,447.834 C203.602,452.24 208.247,456.191 212.804,456.191 C217.218,456.191 223.583,453.781 228.13,449.347 C229.134,453.339 231.827,455.064 236.13,455.865 C236.62,455.974 237.11,456.029 237.655,456.029 C243.923,456.029 250.79,449.652 254.442,446.49 C256.132,445.019 256.896,443.765 256.896,441.693 C256.896,440.712 257.005,436.789 255.477,436.789 C255.41,436.789 255.322,436.816 255.216,436.867 C255.217,436.355 255.211,435.58 255.128,434.813 C255.243,434.797 255.359,434.789 255.477,434.789 C256.235,434.789 256.953,435.091 257.501,435.641 C258.748,436.895 258.908,439.206 258.896,441.516 L258.895,441.693 C258.895,444.833 257.386,446.579 255.752,448.002 L255.004,448.653 C250.987,452.16 244.264,458.029 237.655,458.029 C236.988,458.029 236.359,457.963 235.731,457.825 C232.748,457.266 229.296,456.153 227.319,452.699 C222.448,456.476 216.731,458.191 212.804,458.191 M213.849,443.343 C213.693,443.343 213.536,443.339 213.381,443.329 C214.28,441.138 215.921,438.752 216.837,437.224 C218.419,434.5 229.81,414.824 229.81,413.679 C229.81,412.596 228.894,411.112 227.763,410.185 C227.997,409.682 228.128,409.347 228.128,409.224 C228.128,408.797 227.985,408.307 227.743,407.813 C229.969,408.91 231.81,411.61 231.81,413.679 C231.81,414.331 231.81,415.421 218.552,438.253 C218.335,438.616 218.077,439.027 217.798,439.471 C217.182,440.453 216.341,441.792 215.699,443.075 C215.08,443.248 214.462,443.343 213.849,443.343 M150.522,443.343 C150.366,443.343 150.21,443.339 150.055,443.329 C150.954,441.138 152.595,438.752 153.511,437.224 C155.093,434.5 166.483,414.824 166.483,413.679 C166.483,412.596 165.567,411.112 164.436,410.185 C164.671,409.682 164.802,409.347 164.802,409.224 C164.802,408.797 164.659,408.307 164.417,407.813 C166.643,408.91 168.483,411.61 168.483,413.679 C168.483,414.331 168.483,415.421 155.226,438.253 C155.008,438.616 154.75,439.027 154.472,439.471 C153.856,440.453 153.015,441.792 152.372,443.075 C151.754,443.248 151.136,443.343 150.522,443.343 M97.358,443.253 C96.581,443.015 95.889,442.642 95.319,442.141 C95.409,440.507 95.979,438.99 96.181,437.334 C105.446,427.033 136.622,390.351 136.622,377.814 C136.622,376.215 135.956,374.904 134.919,373.948 C134.933,373.746 134.94,373.55 134.94,373.359 C134.94,372.588 134.786,371.885 134.509,371.256 C136.869,372.508 138.622,374.773 138.622,377.814 C138.622,379.603 138.075,381.792 137.106,384.264 C135.465,386.396 133.924,388.516 132.54,390.474 C129.181,395.226 125.644,401.449 122.571,408.169 C112.326,422.114 100.524,435.473 98.072,438.219 C97.973,438.808 97.846,439.367 97.722,439.911 C97.509,440.843 97.308,441.723 97.308,442.566 C97.308,442.812 97.325,443.041 97.358,443.253 M126.133,443.253 C125.356,443.015 124.665,442.642 124.095,442.141 C124.184,440.507 124.755,438.99 124.954,437.334 C134.222,427.033 165.397,390.351 165.397,377.814 C165.397,376.215 164.731,374.904 163.694,373.948 C163.708,373.746 163.716,373.55 163.716,373.359 C163.716,372.589 163.561,371.885 163.285,371.256 C165.644,372.509 167.397,374.774 167.397,377.814 C167.397,392.335 131.352,433.172 126.846,438.218 C126.748,438.81 126.62,439.37 126.496,439.915 C126.283,440.846 126.083,441.724 126.083,442.566 C126.083,442.812 126.101,443.041 126.133,443.253 M237.718,443.234 C237.424,443.234 237.154,443.218 236.907,443.183 C236.92,443.087 236.933,442.991 236.946,442.892 C237.71,437.443 253.788,409.972 257.712,403.922 C262.728,403.65 266.651,403.105 271.665,402.615 C273.302,402.451 276.025,401.578 276.025,399.398 C276.025,398.58 275.645,398.253 275.1,397.818 C274.566,397.429 274.193,396.92 273.829,396.428 C274.148,396.02 274.345,395.528 274.345,394.943 C274.345,394.125 273.964,393.798 273.419,393.363 C273.335,393.302 273.255,393.238 273.178,393.171 C274.297,393.702 274.935,394.562 275.454,395.262 C275.747,395.657 275.999,395.999 276.278,396.201 L276.315,396.228 L276.351,396.256 C276.977,396.758 278.025,397.598 278.025,399.398 C278.025,402.568 274.931,404.298 271.86,404.605 C270.333,404.754 268.907,404.909 267.522,405.059 C264.662,405.369 261.945,405.664 258.847,405.858 C253.644,414.081 239.743,438.368 238.943,443.064 C238.515,443.174 238.104,443.234 237.718,443.234 M174.826,442.78 C173.914,442.435 173.197,441.951 172.641,441.38 C172.64,441.339 172.64,441.298 172.64,441.257 C172.64,432.101 181.688,423.597 189.155,419.347 C190.08,418.766 191.183,418.172 192.342,417.714 C191.978,418.303 191.726,418.861 191.726,419.361 C191.726,419.643 191.746,419.908 191.785,420.154 C191.271,420.413 190.746,420.71 190.219,421.041 L190.183,421.064 L190.145,421.085 C182.427,425.478 174.64,433.42 174.64,441.257 C174.64,441.816 174.702,442.324 174.826,442.78 M196.895,429.14 C193.51,429.14 191.407,427.1 191.407,423.816 C191.407,422.937 191.735,422.116 192.197,421.327 C192.551,421.909 193.1,422.302 193.824,422.51 C193.57,422.974 193.407,423.414 193.407,423.816 C193.407,426.051 194.659,427.14 196.895,427.14 C201.146,427.14 205.723,419.564 205.723,415.804 C205.723,414.204 205.053,412.884 204.014,411.882 C204.032,411.698 204.042,411.52 204.042,411.349 C204.042,410.498 203.852,409.726 203.518,409.04 C205.956,410.408 207.724,412.735 207.724,415.804 C207.724,420.196 202.712,429.14 196.895,429.14 M148.141,421.672 C147.689,421.072 147.315,420.345 147.315,419.457 C147.315,418.757 147.89,417.785 148.708,416.754 C149.26,417.334 149.826,417.912 149.866,418.528 C149.514,418.992 149.315,419.323 149.315,419.457 C149.315,419.529 149.323,419.601 149.337,419.673 C149.039,420.191 148.629,420.87 148.141,421.672 M211.467,421.672 C211.015,421.071 210.641,420.344 210.641,419.457 C210.641,418.757 211.216,417.785 212.034,416.754 C212.586,417.334 213.152,417.912 213.192,418.528 C212.84,418.992 212.642,419.323 212.642,419.457 C212.642,419.529 212.649,419.601 212.663,419.673 C212.365,420.19 211.955,420.87 211.467,421.672 M238.419,407.394 L237.927,407.394 C236.089,407.394 233.843,406.868 232.521,405.484 L232.372,405.486 C229.154,405.486 227.155,403.488 227.155,400.271 C227.155,399.226 227.336,398.185 227.666,397.181 C227.935,398.007 228.484,398.559 229.305,398.832 C229.207,399.313 229.155,399.796 229.155,400.271 C229.155,402.396 230.245,403.486 232.372,403.486 C232.747,403.486 233.126,403.429 233.507,403.345 C234.032,404.955 236.563,405.394 237.927,405.394 L238.419,405.394 C238.97,405.394 240.99,405.176 243.02,404.945 C242.597,405.63 242.155,406.353 241.699,407.105 C240.062,407.284 238.906,407.394 238.419,407.394 M239.811,391.425 C239.653,391.338 239.484,391.263 239.303,391.203 C239.44,390.676 239.518,390.157 239.518,389.656 C239.518,389.492 239.51,389.333 239.494,389.181 C240.764,389.494 241.774,390.209 242.417,391.223 C241.705,391.257 240.992,391.296 240.28,391.345 C240.14,391.358 239.982,391.386 239.811,391.425 M269.181,390.293 C268.687,390.266 268.115,390.255 267.532,390.255 C267.342,390.255 267.108,390.261 266.845,390.271 C268.131,388.217 269.321,386.212 269.321,385.773 C269.321,385.173 268.722,384.3 268.069,384.3 C267.339,384.3 267.22,383.919 266.401,383.794 C266.828,383.073 267.184,382.439 267.403,381.982 C267.68,382.072 267.911,382.179 268.12,382.284 L268.155,382.301 C269.973,382.357 271.321,384.159 271.321,385.773 C271.321,386.467 271.106,387.159 269.181,390.293" id="Fill-16" fill="#163B48" sketch:type="MSShapeGroup"></path>
            <path d="M129.97,448.015 C126.645,448.015 124.083,446.054 124.083,442.566 C124.083,442.423 124.087,442.282 124.095,442.141 C124.665,442.642 125.356,443.015 126.133,443.253 C126.528,445.803 129.128,446.015 129.97,446.015 C133.256,446.015 137.477,442.062 139.696,439.922 C141.836,435.364 145.212,429.838 147.465,426.152 C148.19,424.964 148.934,423.748 149.348,423.023 C149.229,422.891 149.093,422.749 148.985,422.634 C148.719,422.355 148.415,422.037 148.141,421.672 C148.629,420.87 149.039,420.191 149.337,419.673 C149.567,420.836 151.55,421.873 151.55,423.052 C151.55,423.713 144.696,433.843 141.353,441.103 C138.077,444.269 133.905,448.015 129.97,448.015 M101.194,448.015 C97.87,448.015 95.308,446.054 95.308,442.566 C95.308,442.423 95.312,442.282 95.319,442.141 C95.889,442.642 96.581,443.015 97.358,443.253 C97.753,445.803 100.353,446.015 101.194,446.015 C104.677,446.015 108.939,441.861 112.052,438.827 C112.913,437.988 113.684,437.237 114.384,436.62 C116.897,421.326 125.526,403.766 132.588,393.775 C143.982,377.654 152.311,370.146 158.802,370.146 C160.351,370.146 161.919,370.531 163.285,371.256 C163.561,371.885 163.716,372.589 163.716,373.359 C163.716,373.55 163.708,373.746 163.694,373.948 C162.434,372.786 160.626,372.146 158.802,372.146 C151.335,372.146 140.925,385.445 134.222,394.929 C126.765,405.478 118.429,423.283 116.243,437.666 C112.974,440.306 106.843,448.015 101.194,448.015 M215.53,447.799 C214.167,447.799 212.749,447.47 212.749,445.945 C212.749,445.163 212.998,444.264 213.381,443.329 C213.536,443.339 213.693,443.343 213.849,443.343 C214.462,443.343 215.08,443.248 215.699,443.075 C215.207,444.056 214.832,445.004 214.762,445.734 C214.914,445.766 215.159,445.799 215.53,445.799 C219.05,445.799 223.513,441.11 226.18,438.308 C226.843,437.611 227.432,436.992 227.958,436.483 C231.525,427.556 238.86,414.963 243.926,406.854 C243.112,406.947 242.366,407.032 241.699,407.105 C242.155,406.353 242.597,405.63 243.02,404.945 C245.302,404.686 247.596,404.41 247.828,404.41 L247.847,404.412 C244.016,410.328 233.942,426.673 229.655,437.631 C226.862,440.201 221.009,447.799 215.53,447.799 M179.999,447.799 C174.3,447.799 172.683,444.351 172.641,441.38 C173.197,441.951 173.914,442.435 174.826,442.78 C175.369,444.784 177.102,445.799 179.999,445.799 C189.057,445.799 197.891,442.35 204.875,436.09 L205.058,435.926 C206.961,432.418 209.168,428.806 210.794,426.146 C211.518,424.961 212.26,423.747 212.674,423.023 C212.555,422.891 212.419,422.749 212.311,422.634 C212.045,422.355 211.741,422.037 211.467,421.672 C211.955,420.87 212.365,420.19 212.663,419.673 C212.893,420.836 214.876,421.873 214.876,423.052 C214.876,423.601 210.145,430.683 206.628,437.228 L206.487,437.334 C205.452,438.205 195.751,447.799 179.999,447.799 M152.204,447.799 C150.841,447.799 149.423,447.47 149.423,445.945 C149.423,445.163 149.671,444.264 150.055,443.329 C150.21,443.339 150.366,443.343 150.522,443.343 C151.136,443.343 151.754,443.248 152.372,443.075 C151.881,444.056 151.506,445.004 151.435,445.734 C151.588,445.766 151.833,445.799 152.204,445.799 C155.531,445.799 159.668,441.643 162.345,438.84 C163.411,431.19 167.835,423.415 174.566,417.407 C181.518,411.203 190.094,407.644 198.095,407.644 C199.984,407.644 201.899,408.13 203.518,409.04 C203.852,409.726 204.042,410.498 204.042,411.349 C204.042,411.52 204.032,411.698 204.014,411.882 C202.506,410.428 200.224,409.644 198.095,409.644 C182.284,409.644 165.997,424.291 164.247,439.744 C161.143,443.005 156.556,447.799 152.204,447.799 M239.399,447.689 C237.655,447.689 236.729,447.144 236.729,445.019 C236.729,444.492 236.813,443.879 236.907,443.183 C237.154,443.218 237.424,443.234 237.718,443.234 C238.104,443.234 238.515,443.174 238.943,443.064 C238.938,443.096 238.933,443.127 238.928,443.157 L238.889,443.456 C238.803,444.085 238.729,444.627 238.729,445.019 C238.729,445.342 238.759,445.537 238.784,445.643 C238.888,445.664 239.078,445.689 239.399,445.689 C242.099,445.689 247.537,440.811 250.459,438.191 C253.022,435.892 254.05,434.97 255.128,434.813 C255.211,435.58 255.217,436.355 255.216,436.867 C253.183,437.846 244.371,447.689 239.399,447.689 M87.174,447.535 C85.867,445.559 85.233,442.954 85.233,439.91 C85.233,439.702 85.235,439.493 85.239,439.283 C86.987,424.682 95.527,405.5 103.813,393.775 C115.207,377.654 123.537,370.146 130.028,370.146 C131.577,370.146 133.144,370.531 134.509,371.256 C134.786,371.885 134.94,372.588 134.94,373.359 C134.94,373.55 134.933,373.746 134.919,373.948 C133.659,372.785 131.852,372.146 130.028,372.146 C122.561,372.146 112.149,385.445 105.446,394.929 C96.78,407.193 86.915,429.267 86.915,444.365 C86.915,445.484 87,446.544 87.174,447.535 M193.824,422.51 C193.1,422.302 192.551,421.909 192.197,421.327 C192.538,420.745 192.951,420.18 193.358,419.624 L193.517,419.407 C192.961,419.603 192.38,419.854 191.785,420.154 C191.746,419.908 191.726,419.643 191.726,419.361 C191.726,418.861 191.978,418.303 192.342,417.714 C193.574,417.227 194.869,416.894 196.077,416.894 C196.458,416.894 196.677,417.004 196.677,417.439 C196.677,419.005 194.706,420.899 193.824,422.51 M213.192,418.528 C213.152,417.912 212.586,417.334 212.034,416.754 C213.216,415.267 214.907,413.658 216.114,412.573 C219.992,409.086 223.243,407.318 225.776,407.318 C226.441,407.318 227.108,407.5 227.743,407.813 C227.985,408.307 228.128,408.797 228.128,409.224 C228.128,409.347 227.997,409.682 227.763,410.185 C227.127,409.663 226.423,409.318 225.776,409.318 C221.807,409.318 215.141,415.963 213.192,418.528 M149.866,418.528 C149.826,417.912 149.26,417.334 148.708,416.754 C149.89,415.267 151.58,413.658 152.787,412.573 C156.666,409.086 159.917,407.318 162.45,407.318 C163.115,407.318 163.781,407.5 164.417,407.813 C164.659,408.307 164.802,408.797 164.802,409.224 C164.802,409.347 164.671,409.682 164.436,410.185 C163.801,409.663 163.097,409.318 162.45,409.318 C158.48,409.318 151.814,415.963 149.866,418.528 M122.571,408.169 C125.644,401.449 129.181,395.226 132.54,390.474 C133.924,388.516 135.465,386.396 137.106,384.264 C134.495,390.93 128.823,399.659 122.571,408.169 M229.305,398.832 C228.484,398.559 227.935,398.007 227.666,397.181 C229.13,392.723 233.524,389.006 237.985,389.006 C238.52,389.006 239.025,389.066 239.494,389.181 C239.51,389.333 239.518,389.492 239.518,389.656 C239.518,390.157 239.44,390.676 239.303,391.203 C238.913,391.072 238.471,391.005 237.985,391.005 C234.004,391.005 230.108,394.899 229.305,398.832 M273.829,396.428 C273.376,395.817 272.935,395.231 272.21,394.929 C271.775,394.765 270.52,394.711 269.214,394.711 C267.905,394.711 264.526,394.984 263.817,395.039 C264.223,394.362 265.58,392.293 266.845,390.271 C267.108,390.261 267.342,390.255 267.532,390.255 C268.115,390.255 268.687,390.266 269.181,390.293 C268.754,390.988 268.244,391.804 267.632,392.766 C268.26,392.732 268.815,392.711 269.214,392.711 C271.663,392.711 272.459,392.887 272.915,393.057 L272.947,393.07 L272.979,393.083 C273.047,393.111 273.113,393.141 273.178,393.171 C273.255,393.238 273.335,393.302 273.419,393.363 C273.964,393.798 274.345,394.125 274.345,394.943 C274.345,395.528 274.148,396.02 273.829,396.428 M240.87,396.058 C241.077,395.394 241.2,394.738 241.2,394.111 C241.2,392.824 240.69,391.915 239.811,391.425 C239.982,391.386 240.14,391.358 240.28,391.345 C240.992,391.296 241.705,391.257 242.417,391.223 C242.862,391.924 243.131,392.769 243.188,393.722 C244.318,393.661 245.444,393.617 246.544,393.574 C247.328,393.544 248.113,393.513 248.906,393.476 C250.767,393.397 251.228,393.376 251.321,393.371 L251.322,393.385 C251.456,393.367 251.599,393.353 251.752,393.346 L252.817,393.301 C253.051,392.959 253.285,392.616 253.521,392.272 C255.466,389.426 257.477,386.484 259.82,383.899 L259.847,383.863 C260.65,382.787 261.322,382.082 263.272,382.082 C263.517,382.082 263.821,382.023 264.174,381.955 C264.658,381.861 265.206,381.755 265.833,381.755 C266.504,381.755 267.002,381.851 267.403,381.982 C267.184,382.439 266.828,383.073 266.401,383.794 C266.241,383.77 266.055,383.755 265.833,383.755 C264.962,383.755 264.143,384.082 263.272,384.082 C262.128,384.082 262.018,384.3 261.364,385.173 C258.585,388.224 256.241,391.876 253.897,395.256 C248.775,395.474 254.116,395.256 248.991,395.474 C246.647,395.584 244.304,395.638 241.962,395.801 C241.663,395.828 241.286,395.922 240.87,396.058" id="Fill-17" fill="#40BDE2" sketch:type="MSShapeGroup"></path>
            <path d="M132.904,411.045 C133.675,409.468 134.466,407.95 135.257,406.539 C136.868,403.638 145.745,390.731 151.433,384.196 C147.046,391.754 139.05,402.893 132.904,411.045" id="Fill-18" fill="#163B48" sketch:type="MSShapeGroup"></path>
            <path d="M127.19,424.961 C128.644,420.558 130.696,415.557 132.904,411.045 C139.05,402.893 147.046,391.754 151.433,384.196 C153.44,381.89 155.05,380.377 155.804,380.377 C156.241,380.377 156.349,380.757 156.349,381.193 C156.349,387.08 132.477,418.693 127.19,424.961 M151.988,386.597 C146.749,392.92 138.825,404.233 137.001,407.516 C136.193,408.96 135.376,410.534 134.576,412.182 C136.987,408.946 139.597,405.365 142.116,401.783 C147.27,394.456 150.259,389.686 151.988,386.597" id="Fill-19" fill="#40BDE2" sketch:type="MSShapeGroup"></path>
            <path d="M104.128,411.046 C104.9,409.468 105.69,407.951 106.481,406.539 C108.093,403.638 116.971,390.731 122.659,384.196 C118.272,391.755 110.276,402.892 104.128,411.046" id="Fill-20" fill="#163B48" sketch:type="MSShapeGroup"></path>
            <path d="M98.415,424.961 C99.869,420.558 101.921,415.558 104.128,411.046 C110.276,402.892 118.272,391.755 122.659,384.196 C124.666,381.89 126.277,380.377 127.03,380.377 C127.466,380.377 127.575,380.757 127.575,381.193 C127.575,387.08 103.702,418.693 98.415,424.961 M123.216,386.595 C117.977,392.918 110.05,404.233 108.226,407.516 C107.418,408.96 106.601,410.534 105.8,412.182 C108.212,408.947 110.823,405.364 113.342,401.783 C118.498,394.455 121.486,389.684 123.216,386.595" id="Fill-21" fill="#40BDE2" sketch:type="MSShapeGroup"></path>
            <path d="M334.639,372.861 C310.875,372.861 294.25,384.254 294.25,392.974 C294.25,396.408 297.193,397.443 298.502,397.443 L298.721,397.443 C299.047,397.443 299.32,397.607 299.865,397.607 C300.736,397.553 302.263,397.17 305.859,394.99 C306.896,394.335 306.733,393.846 308.312,392.974 C308.967,392.591 309.293,392.32 309.293,392.156 C309.293,392.046 309.131,391.937 308.803,391.937 C308.367,391.937 307.496,392.375 306.459,392.375 C306.078,392.375 305.805,392.211 305.805,391.937 C305.805,391.447 306.404,390.685 307.877,389.541 C311.147,386.978 321.885,381.255 334.529,381.255 C351.644,381.255 361.127,389.976 361.127,400.223 C361.127,415.429 330.877,441.865 303.844,441.865 C301.555,441.865 300.736,441.646 300.736,441.156 C300.736,440.337 329.896,395.371 335.893,387.033 C336.764,385.834 337.146,385.125 337.146,384.525 C337.146,383.271 336.11,382.945 333.111,382.945 C328.643,383.271 327.281,383.709 326.953,384.144 C320.686,392.646 292.943,431.835 290.436,440.882 C290.271,441.537 290,443.009 290,444.426 C290,445.789 290.271,447.097 291.035,447.588 C292.943,448.894 291.689,451.021 302.754,451.021 C332.785,451.021 371.811,425.894 371.811,397.662 C371.811,383.381 358.566,372.861 334.639,372.861" id="Fill-22" fill="#40BDE2" sketch:type="MSShapeGroup"></path>
            <path d="M454.365,400.55 C458.506,400.55 463.193,395.208 463.193,391.176 C463.193,389.158 461.941,388.068 459.978,388.068 C455.51,388.068 451.149,392.974 451.149,397.334 C451.149,399.459 452.238,400.55 454.365,400.55" id="Fill-23" fill="#40BDE2" sketch:type="MSShapeGroup"></path>
            <path d="M456.379,443.771 C456.051,443.771 455.887,443.445 455.887,442.845 C455.887,438.322 465.645,418.318 488.044,413.412 C470.168,435.705 457.685,443.771 456.379,443.771 M420.576,403.601 C422.756,399.678 438.234,377.439 441.123,377.439 C441.561,377.439 441.668,377.822 441.668,378.257 C441.668,384.144 417.797,415.756 412.51,422.025 C414.471,416.084 417.523,409.052 420.576,403.601 M602.219,404.474 C593.934,404.474 569.189,412.759 569.189,425.894 C569.189,430.746 573.223,432.38 576.875,433.47 C584.014,435.595 591.482,436.414 591.482,438.429 C591.482,440.882 584.014,444.316 574.857,444.316 C573.877,444.316 571.914,443.009 571.914,440.992 C571.914,440.719 571.969,440.392 571.969,440.121 C571.969,439.415 571.357,439.142 570.541,439.039 C570.543,438.943 570.555,438.855 570.555,438.757 C570.555,437.777 570.664,433.851 569.137,433.851 C567.775,433.851 558.291,444.754 553.059,444.754 C551.314,444.754 550.389,444.207 550.389,442.081 C550.389,441.482 550.496,440.773 550.605,439.957 C551.369,434.505 567.447,407.035 571.371,400.986 C576.387,400.712 580.311,400.167 585.324,399.678 C586.961,399.513 589.686,398.642 589.686,396.463 C589.686,395.644 589.305,395.318 588.76,394.88 C587.561,394.009 587.178,392.537 585.869,391.992 C585.433,391.83 584.18,391.775 582.873,391.775 C581.564,391.775 578.186,392.046 577.477,392.101 C578.295,390.738 582.981,383.709 582.981,382.836 C582.981,382.236 582.381,381.365 581.729,381.365 C580.856,381.365 580.856,380.82 579.492,380.82 C578.621,380.82 577.803,381.146 576.932,381.146 C575.787,381.146 575.678,381.365 575.023,382.236 C572.244,385.289 569.9,388.941 567.557,392.32 C562.433,392.537 567.775,392.32 562.65,392.537 C560.307,392.646 557.963,392.701 555.621,392.865 C553.822,393.029 549.352,395.425 548.807,397.115 C548.426,398.207 547.062,398.968 547.062,399.787 C547.062,401.912 550.061,402.457 551.586,402.457 L552.078,402.457 C553.277,402.457 561.451,401.422 561.506,401.476 C557.763,407.255 548.062,422.992 543.623,433.931 C543.316,433.982 543.002,434.135 542.654,434.396 C541.674,435.269 533.279,443.881 530.063,444.754 C529.518,444.916 529.026,445.025 528.591,445.025 C527.337,445.025 526.682,444.316 526.682,442.845 C526.682,438.539 540.855,414.175 540.855,411.396 C540.855,409.816 540.529,408.289 539.002,407.689 C538.185,407.363 536.277,406.818 535.078,406.818 C528.155,406.818 516.436,418.972 510.385,426.33 C521.343,404.146 541.455,374.115 542.328,372.425 C542.545,371.88 542.654,371.281 542.654,370.681 C542.654,368.664 541.891,368.556 541.129,368.556 C537.041,368.556 534.315,370.027 533.06,371.662 C531.754,373.351 527.72,379.457 523.686,386.488 C511.004,408.589 503.43,423.347 498.073,434.705 C487.917,439.838 479.143,447.652 475.455,450.912 C485.265,433.635 493.767,420.552 500.089,411.506 C500.253,411.232 501.397,410.47 501.397,409.762 C501.397,409.652 501.397,409.597 501.343,409.488 C500.907,408.398 500.907,406.709 499.435,406.709 C496.546,406.709 493.657,406.599 491.151,409.379 C490.607,408.289 488.97,407.254 486.355,407.254 C475.559,407.254 453.078,421.277 448.187,438.242 C445.19,441.31 441.269,444.861 437.523,444.861 C436.16,444.861 434.742,444.535 434.742,443.009 C434.742,440.392 437.523,436.468 438.83,434.289 C440.412,431.562 451.803,411.886 451.803,410.742 C451.803,409.052 449.568,406.382 447.769,406.382 C443.082,406.382 434.635,415.648 434.635,416.519 C434.635,417.773 436.869,418.863 436.869,420.117 C436.869,420.775 430.015,430.906 426.672,438.166 C423.396,441.332 419.224,445.08 415.289,445.08 C411.965,445.08 409.402,443.117 409.402,439.629 C409.402,437.83 410.056,436.195 410.273,434.396 C419.541,424.096 450.717,387.413 450.717,374.879 C450.717,371.335 447.447,369.209 444.121,369.209 C436.654,369.209 426.244,382.509 419.541,391.992 C411.984,402.683 403.521,420.828 401.475,435.31 C401.279,434.501 400.93,433.851 400.305,433.851 C399.867,433.851 399.377,434.179 399.051,434.396 C394.035,438.158 386.459,445.679 378.502,445.679 C375.613,445.679 371.254,445.244 371.254,441.427 C371.254,438.974 380.52,433.851 382.754,432.597 C384.443,431.672 386.297,431.562 387.877,430.254 C388.586,429.656 389.785,428.728 389.785,427.803 C389.785,426.929 388.367,424.695 387.441,424.205 C387.113,424.096 386.678,424.096 386.352,424.096 C383.57,424.096 381.119,425.894 378.176,425.894 C377.957,425.894 377.084,425.894 377.084,425.458 C377.084,423.441 384.553,418.537 386.352,417.554 C387.767,416.738 389.24,415.974 390.82,415.429 C390.711,415.865 390.602,416.301 390.602,416.847 C390.602,418.427 390.82,419.298 392.564,419.298 C397.416,419.298 402.102,415.103 402.102,410.252 C402.102,407.908 398.506,406.927 396.598,406.927 C387.332,406.927 369.236,414.611 369.236,425.349 C369.236,428.238 369.51,430.363 372.506,431.726 C367.383,433.635 362.096,437.068 362.096,443.117 C362.096,451.131 370.6,453.146 377.084,453.146 C385.914,453.146 393.928,447.914 399.16,443.662 C399.772,443.174 400.535,442.468 401.02,441.781 C401.133,448.613 404.512,453.146 411.637,453.146 C416.43,453.146 421.848,451.113 426.17,448.146 C427.977,451.074 431.412,453.255 434.797,453.255 C438.535,453.255 443.672,451.527 447.92,448.308 C449.256,451.127 452.332,451.892 455.56,451.892 C458.94,451.892 466.951,447.097 475.236,438.429 C465.262,454.455 465.262,454.127 464.281,455.599 C462.701,457.562 446.459,468.08 446.459,478.654 C446.459,482.361 448.475,484.486 452.291,484.486 C454.252,484.486 456.105,483.777 457.031,482.142 C459.103,478.599 462.647,473.586 468.75,466.228 C475.526,458.078 485.575,451.169 492.659,446.642 C492.12,447.877 491.599,449.08 491.091,450.258 C490.927,450.693 490.872,450.966 490.872,451.183 C490.872,451.73 491.253,451.783 491.581,451.783 C492.126,451.783 492.943,452.71 494.142,452.71 C495.233,452.71 497.468,451.676 497.903,451.021 C502.427,444.754 523.686,420.662 529.735,416.41 C526.356,422.242 517.091,437.722 517.091,445.08 C517.091,450.748 520.688,453.037 526.083,453.037 C532.176,453.037 537.984,449.039 541.586,445.439 C542.383,450.131 545.152,452.064 549.789,452.928 C550.279,453.037 550.769,453.091 551.314,453.091 C556.022,453.091 561.066,449.496 564.836,446.365 L564.828,446.551 C564.828,449.332 567.281,453.037 575.186,453.037 C584.233,453.037 601.238,446.878 601.238,437.068 C601.238,435.05 599.549,431.726 596.17,430.146 C586.795,425.785 577.637,426.439 577.637,424.369 C577.637,422.57 588.156,413.959 598.404,413.412 C597.914,414.939 597.096,415.103 597.096,416.029 C597.096,416.464 597.26,416.9 597.641,417.064 C598.404,417.447 598.295,418.318 600.094,418.318 C603.309,418.318 607.396,416.084 608.814,414.175 C609.469,413.304 610.123,411.287 610.123,409.543 L610.123,409.162 C610.123,408.179 610.23,404.474 602.219,404.474" id="Fill-24" fill="#40BDE2" sketch:type="MSShapeGroup"></path>
            <path d="M304.436,455.476 C293.371,455.476 294.625,453.349 292.717,452.043 C291.953,451.552 291.682,450.244 291.682,448.88 C291.682,448.649 291.689,448.416 291.702,448.186 C292.223,448.77 292.594,449.416 293.766,449.943 C293.812,450.194 293.868,450.354 293.907,450.434 C294.512,450.861 294.892,451.319 295.2,451.69 C295.825,452.444 296.682,453.476 304.436,453.476 C318.824,453.476 335.503,447.603 349.05,437.765 C363.312,427.409 371.492,414.416 371.492,402.117 L371.492,402.098 C371.702,400.63 371.811,399.151 371.811,397.662 C371.811,395.875 371.603,394.146 371.193,392.49 C372.714,395.414 373.492,398.655 373.492,402.117 C373.492,430.349 334.467,455.476 304.436,455.476 M303.844,441.865 C303.232,441.865 302.726,441.849 302.312,441.817 C304.247,438.619 308.16,432.467 316.07,420.28 C323.185,409.319 332.661,394.895 335.951,390.32 C336.219,389.951 336.406,389.673 336.537,389.465 C336.177,389.429 335.646,389.402 334.865,389.4 C334.634,389.417 334.413,389.434 334.203,389.452 C334.749,388.656 335.226,387.97 335.623,387.41 C337.985,387.473 338.828,387.85 338.828,388.98 C338.828,389.58 338.445,390.289 337.574,391.488 C332.583,398.428 311.545,430.744 304.63,441.857 C304.367,441.862 304.106,441.865 303.844,441.865 M301.547,402.062 C301.002,402.062 300.728,401.898 300.402,401.898 L300.184,401.898 C298.875,401.898 295.931,400.863 295.931,397.429 C295.931,397.146 295.949,396.858 295.984,396.57 C296.629,397.035 297.347,397.288 297.932,397.39 C297.932,397.403 297.931,397.416 297.931,397.429 C297.931,399.791 300.161,399.898 300.184,399.898 L300.402,399.898 C300.777,399.898 301.083,399.971 301.286,400.018 C301.394,400.043 301.446,400.055 301.495,400.06 C302.125,399.996 303.426,399.565 306.095,397.98 C305.712,397.56 305.486,397.009 305.486,396.392 C305.486,395.92 305.603,395.463 305.857,394.991 C305.858,394.991 305.858,394.99 305.859,394.99 C306.896,394.335 306.733,393.846 308.312,392.974 C308.967,392.591 309.293,392.32 309.293,392.156 C309.293,392.066 309.184,391.976 308.964,391.947 C311.739,389.981 318.171,386.451 326.529,384.721 C326.024,385.411 325.418,386.246 324.726,387.207 C317.401,389.083 311.77,392.262 309.559,393.996 C308.086,395.14 307.486,395.902 307.486,396.392 C307.486,396.666 307.76,396.83 308.14,396.83 C309.178,396.83 310.049,396.392 310.485,396.392 C310.813,396.392 310.975,396.501 310.975,396.611 C310.975,396.775 310.648,397.046 309.994,397.429 C308.414,398.301 308.578,398.791 307.541,399.445 C303.945,401.625 302.418,402.007 301.547,402.062 M360.776,396.862 C357.193,390.458 348.958,385.848 336.762,385.713 C337.024,385.237 337.146,384.864 337.146,384.525 C337.146,384.194 337.074,383.928 336.913,383.715 C346.184,383.839 353.014,386.414 357.595,390.171 C359.194,392.191 360.263,394.457 360.776,396.862" id="Fill-25" fill="#163B48" sketch:type="MSShapeGroup"></path>
            <path d="M293.766,449.943 C292.594,449.416 292.223,448.77 291.702,448.186 C291.767,447.005 291.98,445.885 292.117,445.337 C294.625,436.291 322.367,397.101 328.635,388.599 C328.963,388.164 330.324,387.726 334.793,387.4 C335.088,387.4 335.365,387.403 335.623,387.41 C335.226,387.97 334.749,388.656 334.203,389.452 C331.43,389.681 330.403,389.931 330.049,390.052 C322.782,399.939 296.351,437.553 294.044,445.871 C293.927,446.342 293.682,447.647 293.682,448.88 C293.682,449.338 293.719,449.688 293.766,449.943 M305.526,448.32 C303.74,448.32 300.418,448.32 300.418,445.611 C300.418,445.249 300.418,444.947 302.312,441.817 C302.726,441.849 303.232,441.865 303.844,441.865 C304.106,441.865 304.367,441.862 304.63,441.857 C303.237,444.096 302.418,445.474 302.418,445.611 C302.418,446.101 303.236,446.32 305.526,446.32 C332.558,446.32 362.808,419.884 362.808,404.677 C362.808,401.914 362.119,399.262 360.776,396.862 C360.263,394.457 359.194,392.191 357.595,390.171 C362.481,394.178 364.808,399.527 364.808,404.677 C364.808,412.764 357.422,423.533 345.532,432.78 C332.834,442.656 318.252,448.32 305.526,448.32 M371.492,402.098 C371.486,395.577 368.457,390.011 362.732,385.999 C356.491,381.626 347.358,379.316 336.32,379.316 C313.285,379.316 297.988,390.178 297.932,397.39 C297.347,397.288 296.629,397.035 295.984,396.57 C297.021,387.979 313.33,377.316 336.32,377.316 C354.447,377.316 366.443,383.354 371.193,392.49 C371.603,394.146 371.811,395.875 371.811,397.662 C371.811,399.151 371.702,400.63 371.492,402.098 M305.857,394.991 C306.277,394.212 307.072,393.395 308.331,392.417 C308.514,392.273 308.726,392.116 308.964,391.947 C309.184,391.976 309.293,392.066 309.293,392.156 C309.293,392.32 308.967,392.591 308.312,392.974 C306.733,393.846 306.896,394.335 305.859,394.99 C305.858,394.99 305.858,394.991 305.857,394.991 M324.726,387.207 C325.418,386.246 326.024,385.411 326.529,384.721 C329.534,384.099 332.788,383.71 336.211,383.71 C336.446,383.71 336.681,383.712 336.913,383.715 C337.074,383.928 337.146,384.194 337.146,384.525 C337.146,384.864 337.024,385.237 336.762,385.713 C336.578,385.711 336.396,385.71 336.211,385.71 C332.12,385.71 328.229,386.309 324.726,387.207" id="Fill-26" fill="#40BDE2" sketch:type="MSShapeGroup"></path>
            <path d="M456.047,405.006 C453.92,405.006 452.83,403.914 452.83,401.788 C452.83,401.314 452.882,400.832 452.98,400.351 C453.378,400.484 453.84,400.55 454.365,400.55 C454.573,400.55 454.781,400.537 454.99,400.511 C454.886,400.939 454.83,401.367 454.83,401.788 C454.83,402.812 455.023,403.006 456.047,403.006 C458.919,403.006 462.875,398.732 462.875,395.631 C462.875,395.064 462.771,394.722 462.276,394.588 C462.588,393.97 462.83,393.342 462.987,392.724 C464.169,393.124 464.875,394.116 464.875,395.631 C464.875,399.664 460.188,405.006 456.047,405.006" id="Fill-27" fill="#163B48" sketch:type="MSShapeGroup"></path>
            <path d="M454.365,400.55 C453.84,400.55 453.378,400.484 452.98,400.351 C453.781,396.419 457.678,392.523 461.66,392.523 C462.149,392.523 462.594,392.591 462.987,392.724 C462.83,393.342 462.588,393.97 462.276,394.588 C462.115,394.545 461.913,394.523 461.66,394.523 C458.865,394.523 455.726,397.493 454.99,400.511 C454.781,400.537 454.573,400.55 454.365,400.55" id="Fill-28" fill="#40BDE2" sketch:type="MSShapeGroup"></path>
            <path d="M453.973,488.941 C450.169,488.941 448.155,486.831 448.141,483.148 C448.701,483.649 449.398,484.016 450.227,484.237 C450.543,486.097 451.734,486.941 453.973,486.941 C454.648,486.941 456.293,486.811 456.973,485.612 C459.428,481.414 463.322,476.121 468.893,469.406 C475.167,461.858 484.015,455.461 490.892,450.947 C490.878,451.034 490.872,451.112 490.872,451.183 C490.872,451.73 491.253,451.783 491.581,451.783 C491.847,451.783 492.177,452.004 492.586,452.23 C485.669,456.739 476.664,463.186 470.432,470.683 C464.328,478.041 460.785,483.054 458.713,486.597 C457.787,488.232 455.933,488.941 453.973,488.941 M472.576,462.068 C474.8,459.859 477.205,457.768 479.641,455.825 C479.269,456.151 478.929,456.452 478.623,456.722 L478.461,456.865 L472.576,462.068 M436.478,457.711 C433.094,457.711 429.658,455.529 427.852,452.601 C423.529,455.568 418.111,457.601 413.318,457.601 C407.226,457.601 403.873,454.287 402.958,449.056 C403.722,450.21 404.715,451.149 405.947,451.835 C407.307,454.339 409.77,455.601 413.318,455.601 C417.469,455.601 422.479,453.863 426.72,450.952 L427.821,450.196 C428.361,450.723 428.956,451.199 429.59,451.61 C431.11,454.027 433.933,455.711 436.478,455.711 C440.075,455.711 444.753,453.928 448.394,451.169 L449.529,450.309 C449.989,450.663 450.504,450.946 451.059,451.169 L451.409,451.907 C451.695,452.51 452.566,454.347 457.242,454.347 C459.114,454.347 464.057,451.866 470.114,446.62 C468.649,448.946 467.608,450.58 466.847,451.76 C462.665,454.759 459.186,456.347 457.242,456.347 C454.014,456.347 450.938,455.582 449.601,452.763 C445.353,455.982 440.217,457.711 436.478,457.711 M378.765,457.601 C372.528,457.601 364.421,455.735 363.814,448.46 C364.542,449.399 365.468,450.166 366.521,450.787 C368.77,455.067 375.537,455.601 378.765,455.601 C385.198,455.601 392.202,452.561 399.581,446.565 C400.219,446.054 400.769,445.505 401.066,445.084 L401.303,444.748 C401.458,445.587 401.677,446.376 401.961,447.109 C401.592,447.487 401.192,447.837 400.842,448.117 C395.609,452.369 387.596,457.601 378.765,457.601 M552.996,457.546 C552.451,457.546 551.961,457.492 551.471,457.383 C546.834,456.519 544.065,454.586 543.268,449.894 C539.666,453.494 533.857,457.492 527.765,457.492 C522.671,457.492 519.179,455.45 518.805,450.451 C519.434,451.173 520.222,451.733 521.145,452.144 C521.796,453.986 523.503,455.492 527.765,455.492 C534.328,455.492 540.208,450.125 541.854,448.479 L542.329,448.004 C543.081,449.701 544.261,450.871 545.857,451.685 C546.787,453.735 548.594,454.813 551.837,455.417 L551.872,455.422 L551.906,455.43 C552.261,455.509 552.607,455.546 552.996,455.546 C557.696,455.546 563.374,450.831 565.239,449.282 L565.504,449.062 C566.087,450.095 567.082,451.078 568.62,451.808 C569.131,453.651 571.483,455.492 576.867,455.492 C585.316,455.492 600.92,449.731 600.92,441.523 C600.92,441.196 600.826,440.745 600.628,440.237 C600.993,439.305 601.205,438.329 601.235,437.314 C602.358,438.762 602.92,440.36 602.92,441.523 C602.92,451.334 585.914,457.492 576.867,457.492 C568.963,457.492 566.51,453.787 566.51,451.006 L566.517,450.82 C562.748,453.951 557.703,457.546 552.996,457.546 M495.823,457.166 C494.624,457.166 493.808,456.238 493.263,456.238 C492.935,456.238 492.554,456.185 492.554,455.639 C492.554,455.421 492.608,455.148 492.773,454.713 C493.064,454.038 493.359,453.354 493.66,452.661 C493.813,452.692 493.974,452.71 494.142,452.71 C494.632,452.71 495.352,452.502 496.036,452.213 C495.659,453.077 495.291,453.926 494.93,454.761 L495.052,454.831 C495.34,454.996 495.638,455.166 495.823,455.166 C496.27,455.15 497.59,454.593 498.002,454.252 C501.66,449.209 517.196,431.341 525.987,422.934 C524.924,424.835 523.794,426.918 522.709,429.053 C514.101,437.988 502.749,451.092 499.585,455.476 C499.15,456.131 496.915,457.166 495.823,457.166 M479.341,447.536 C488.027,432.688 495.299,421.732 500.11,414.846 C500.296,414.564 500.521,414.356 500.758,414.137 L500.93,413.977 C500.896,413.854 500.863,413.735 500.833,413.621 C500.796,413.485 500.749,413.312 500.703,413.164 L500.484,413.163 C499.928,413.163 499.407,413.169 498.915,413.196 C499.314,412.618 499.705,412.055 500.089,411.506 C500.136,411.427 500.263,411.309 500.421,411.163 L500.484,411.163 C500.694,411.163 500.906,411.164 501.116,411.164 C502.589,411.164 502.589,412.853 503.024,413.943 C503.079,414.052 503.079,414.107 503.079,414.216 C503.079,414.925 501.934,415.687 501.771,415.96 C496.927,422.891 490.805,432.19 483.795,443.929 C482.146,445.206 480.649,446.432 479.341,447.536 M502.589,445.456 L502.942,444.741 C504.528,442.856 506.344,440.744 508.275,438.543 L502.589,445.456 M528.591,445.025 C527.872,445.025 527.351,444.792 527.036,444.317 C528.233,440.866 530.976,435.379 534.823,427.827 C537.261,423.04 540.29,417.094 540.536,415.779 C540.525,414.287 540.154,414.087 539.972,414.013 C540.302,413.258 540.551,412.627 540.699,412.15 C542.213,412.754 542.537,414.277 542.537,415.851 C542.537,418.302 531.511,437.546 528.909,445.008 C528.8,445.019 528.694,445.025 528.591,445.025 M437.057,444.847 C436.314,444.8 435.606,444.625 435.173,444.18 C435.928,442.3 437.117,440.405 438.083,438.866 C438.347,438.446 438.591,438.058 438.796,437.715 C444.521,427.85 450.552,417.145 451.452,415 C451.339,414.586 450.942,414.012 450.506,413.559 C450.896,412.813 451.214,412.182 451.437,411.704 C452.568,412.631 453.484,414.115 453.484,415.197 C453.484,416.342 442.094,436.017 440.512,438.744 C439.596,440.271 437.956,442.656 437.057,444.847 M373.376,444.796 C372.753,444.486 372.219,444.07 371.843,443.514 C373.213,441.685 376.416,439.253 383.26,435.418 L383.456,435.308 C384.308,434.842 385.146,434.557 385.886,434.305 C386.818,433.989 387.623,433.714 388.283,433.169 L388.44,433.037 C388.67,432.845 389.146,432.447 389.389,432.164 C389.172,431.674 388.664,430.912 388.312,430.552 C388.218,430.55 388.108,430.55 388.033,430.55 C387.835,430.55 387.634,430.564 387.43,430.589 C387.581,430.486 387.73,430.375 387.877,430.254 C388.321,429.879 388.958,429.375 389.372,428.823 C390.282,429.525 391.467,431.459 391.467,432.257 C391.467,433.183 390.267,434.111 389.559,434.709 C387.978,436.017 386.125,436.127 384.435,437.053 C382.494,438.142 375.241,442.154 373.376,444.796 M552.248,444.702 C551.333,444.569 550.745,444.156 550.508,443.211 C552.62,435.507 568.183,409.273 571.375,404.352 L571.929,403.499 L572.944,403.444 C576.366,403.257 579.305,402.939 582.416,402.602 C583.82,402.45 585.264,402.294 586.812,402.142 C588.029,402.02 589.19,401.498 589.348,401.025 L589.223,400.922 C588.472,400.365 587.978,399.698 587.58,399.161 C587.568,399.145 587.556,399.128 587.544,399.112 C588.182,398.838 588.771,398.457 589.17,397.947 C589.534,398.439 589.907,398.947 590.441,399.336 C590.986,399.773 591.367,400.099 591.367,400.918 C591.367,403.097 588.643,403.968 587.006,404.133 C581.992,404.623 578.068,405.168 573.053,405.441 C569.129,411.49 553.051,438.96 552.287,444.412 C552.274,444.51 552.261,444.607 552.248,444.702 M456.379,443.771 C456.359,443.771 456.339,443.77 456.32,443.767 C458.891,436.316 468.124,422.476 485.073,417.049 C484.188,418.11 483.32,419.134 482.466,420.124 C469.494,425.431 461.96,435.847 459.015,442.395 C457.584,443.338 456.682,443.771 456.379,443.771 M411.096,443.659 C410.308,442.967 409.752,442.031 409.521,440.876 C409.546,440.765 409.572,440.654 409.597,440.543 C409.75,439.874 409.894,439.241 409.969,438.612 L410.045,437.984 L410.468,437.513 C425.906,420.354 450.398,389.385 450.398,379.333 C450.398,378.911 450.324,378.523 450.189,378.171 C450.465,377.189 450.638,376.283 450.695,375.467 C451.732,376.424 452.398,377.734 452.398,379.333 C452.398,391.869 421.223,428.551 411.955,438.851 C411.755,440.508 411.185,442.025 411.096,443.659 M572.236,442.362 C572.037,441.956 571.914,441.496 571.914,440.992 C571.914,440.719 571.969,440.392 571.969,440.121 C571.969,439.415 571.357,439.142 570.541,439.039 C570.543,438.943 570.555,438.855 570.555,438.757 C570.555,438.66 570.556,438.534 570.556,438.385 C570.663,438.333 570.751,438.306 570.818,438.306 C572.05,438.306 572.217,440.86 572.236,442.362 M589.662,440.755 C586.823,439.927 582.636,439.14 578.556,437.925 C574.91,436.837 570.885,435.206 570.871,430.373 C571.509,431.049 572.288,431.59 573.14,432.038 C573.852,434.037 575.956,435.062 579.129,436.008 C581.348,436.67 583.654,437.214 585.69,437.694 C587.902,438.216 589.786,438.66 591.277,439.167 C590.999,439.686 590.445,440.227 589.662,440.755 M373.278,438.708 C374.496,437.67 376.111,436.568 377.685,435.576 L379.422,436.366 L374.886,438.055 C374.324,438.264 373.788,438.482 373.278,438.708 M371.075,432.3 C370.991,431.813 370.95,431.295 370.932,430.746 C371.348,431.107 371.864,431.434 372.506,431.726 C372.029,431.904 371.55,432.095 371.075,432.3 M581.535,426.055 C580.617,425.88 579.832,425.715 579.212,425.531 C582.639,421.94 590.161,417.528 597.107,416.224 C597.15,416.589 597.317,416.925 597.641,417.064 C598.101,417.295 598.244,417.703 598.679,417.991 C591.754,418.838 584.93,423.055 581.535,426.055 M379.307,425.81 C382.338,422.92 387.005,420.292 387.075,420.254 C388.053,419.689 389.337,418.986 390.79,418.393 C391.021,418.985 391.518,419.298 392.564,419.298 C393.313,419.298 394.059,419.198 394.783,419.011 L394.441,420.372 C394.35,420.738 394.283,421.002 394.283,421.302 C394.283,421.491 394.287,421.638 394.293,421.754 C398.15,421.725 401.783,418.314 401.783,414.707 C401.783,414.531 401.524,414.298 401.109,414.076 C401.426,413.484 401.676,412.861 401.846,412.214 C402.936,412.753 403.783,413.569 403.783,414.707 C403.783,419.558 399.098,423.754 394.246,423.754 C392.502,423.754 392.283,422.882 392.283,421.302 C392.283,420.756 392.392,420.32 392.502,419.884 C390.922,420.429 389.449,421.193 388.033,422.009 C387.369,422.372 385.931,423.27 384.382,424.36 C382.706,424.774 381.083,425.553 379.307,425.81 M601.775,422.773 C599.977,422.773 600.086,421.902 599.322,421.519 C598.941,421.355 598.777,420.919 598.777,420.484 C598.777,419.658 599.429,419.438 599.918,418.315 C599.974,418.317 600.033,418.318 600.094,418.318 C600.744,418.318 601.43,418.227 602.123,418.065 L601.99,418.478 C601.712,419.344 601.35,419.919 601.055,420.326 C601.195,420.46 601.304,420.584 601.391,420.683 L601.45,420.753 C601.508,420.761 601.611,420.773 601.775,420.773 C604.465,420.773 607.892,418.781 608.891,417.437 C609.267,416.936 609.805,415.355 609.805,413.997 L609.805,413.617 C609.805,413.22 609.787,412.874 609.6,412.547 C609.835,411.849 610.017,411.046 610.089,410.259 C611.844,411.424 611.805,413.021 611.805,413.617 L611.805,413.997 C611.805,415.742 611.15,417.76 610.496,418.63 C609.078,420.539 604.99,422.773 601.775,422.773 M514.702,421.377 C523.328,405.461 534.454,388.131 539.667,380.01 C540.869,378.137 541.919,376.502 542.189,376.039 C542.285,375.761 542.336,375.451 542.336,375.136 L542.335,375.019 C541.709,375.04 541.129,375.1 540.594,375.192 C541.2,374.247 541.666,373.517 541.966,373.033 C542.241,373.019 542.522,373.011 542.81,373.011 C543.572,373.011 544.336,373.119 544.336,375.136 C544.336,375.736 544.227,376.336 544.01,376.881 C543.321,378.214 530.654,397.192 519.958,416.036 C518.117,417.775 516.335,419.605 514.702,421.377 M436.338,421.192 C436.324,421.12 436.316,421.047 436.316,420.974 C436.316,420.841 436.515,420.51 436.867,420.047 C436.868,420.07 436.869,420.093 436.869,420.117 C436.869,420.227 436.676,420.605 436.338,421.192 M486.29,413.833 C486.866,413.683 487.451,413.542 488.044,413.412 C487.963,413.513 487.884,413.611 487.804,413.711 C487.325,413.721 486.819,413.763 486.29,413.833 M553.76,406.912 L553.268,406.912 C551.742,406.912 548.744,406.367 548.744,404.242 C548.744,403.621 549.528,403.033 550.073,402.309 C550.627,402.415 551.163,402.457 551.586,402.457 L552.078,402.457 C552.134,402.457 552.205,402.454 552.289,402.45 C551.946,403.259 551.413,403.847 551.013,404.289 L550.919,404.392 C551.316,404.635 552.266,404.912 553.268,404.912 L553.76,404.912 C554.339,404.912 557.705,404.526 559.711,404.294 C559.289,404.966 558.838,405.691 558.362,406.463 C556.332,406.693 554.31,406.912 553.76,406.912 M579.73,391.933 C580.658,390.47 581.75,388.72 582.333,387.66 C582.052,387.571 581.836,387.462 581.673,387.382 C581.492,387.292 581.459,387.275 581.174,387.275 C580.981,387.275 580.75,387.312 580.488,387.361 C580.931,386.653 581.364,385.949 581.741,385.314 C582.56,385.438 582.679,385.82 583.41,385.82 C584.062,385.82 584.662,386.691 584.662,387.291 C584.662,387.731 583.471,389.736 582.185,391.791 C581.482,391.818 580.572,391.874 579.73,391.933 M438.841,379.014 C439.764,378.114 440.507,377.55 440.985,377.454 C440.324,377.88 439.61,378.395 438.841,379.014" id="Fill-29" fill="#163B48" sketch:type="MSShapeGroup"></path>
            <path d="M450.227,484.237 C449.398,484.016 448.701,483.649 448.141,483.148 L448.141,483.109 C448.141,472.535 464.383,462.017 465.963,460.054 C466.943,458.582 466.943,458.91 476.918,442.885 C473.401,446.565 469.932,449.546 466.847,451.76 C467.608,450.58 468.649,448.946 470.114,446.62 C471.826,445.137 473.627,443.433 475.472,441.502 L488.836,427.521 L478.616,443.941 C470.235,457.406 468.869,459.37 468.052,460.543 C467.905,460.754 467.779,460.936 467.628,461.163 L467.578,461.238 L467.521,461.308 C467.088,461.846 466.307,462.489 464.723,463.776 C459.99,467.622 450.141,475.624 450.141,483.109 C450.141,483.52 450.169,483.896 450.227,484.237 M469.477,464.808 L475.398,454.38 C476.741,452.014 478.057,449.732 479.341,447.536 C480.649,446.432 482.146,445.206 483.795,443.929 C481.654,447.513 479.431,451.326 477.136,455.367 C480.824,452.107 489.599,444.292 499.755,439.16 C505.112,427.803 512.686,413.045 525.368,390.943 C529.401,383.912 533.435,377.806 534.742,376.117 C535.908,374.597 538.345,373.22 541.966,373.033 C541.666,373.517 541.2,374.247 540.594,375.192 C538.408,375.568 536.989,376.474 536.329,377.334 C535.216,378.774 531.249,384.71 527.103,391.938 C516.132,411.057 508.017,426.333 501.564,440.013 L501.271,440.634 L500.657,440.945 C491.692,445.476 483.73,452.232 479.641,455.825 C477.205,457.768 474.8,459.859 472.576,462.068 L469.477,464.808 M494.142,452.71 C493.974,452.71 493.813,452.692 493.66,452.661 C493.884,452.145 494.111,451.624 494.341,451.097 C493.773,451.46 493.188,451.837 492.586,452.23 C492.177,452.004 491.847,451.783 491.581,451.783 C491.253,451.783 490.872,451.73 490.872,451.183 C490.872,451.112 490.878,451.034 490.892,450.947 C491.713,450.408 492.506,449.896 493.263,449.412 L498.806,445.87 L496.174,451.898 C496.128,452.003 496.082,452.108 496.036,452.213 C495.352,452.502 494.632,452.71 494.142,452.71 M521.145,452.144 C520.222,451.733 519.434,451.173 518.805,450.451 C518.783,450.156 518.772,449.851 518.772,449.535 C518.772,442.178 528.038,426.697 531.418,420.865 C529.6,422.143 526.407,425.213 522.709,429.053 C523.794,426.918 524.924,424.835 525.987,422.934 C527.726,421.271 529.201,419.978 530.268,419.228 L537.708,414 L533.149,421.868 L532.526,422.938 C529.009,428.98 520.772,443.13 520.772,449.535 C520.772,450.401 520.85,451.307 521.145,452.144 M380.183,452.135 C372.54,452.135 370.936,448.735 370.936,445.882 C370.936,445.176 371.165,444.418 371.843,443.514 C372.219,444.07 372.753,444.486 373.376,444.796 C373.094,445.194 372.936,445.561 372.936,445.882 C372.936,449.699 377.295,450.134 380.183,450.134 C388.141,450.134 395.717,442.613 400.732,438.851 C401.058,438.634 401.549,438.306 401.986,438.306 C402.611,438.306 402.961,438.956 403.156,439.765 C405.203,425.283 413.666,407.138 421.223,396.447 C427.926,386.965 438.336,373.664 445.803,373.664 C447.627,373.664 449.435,374.304 450.695,375.467 C450.638,376.283 450.465,377.189 450.189,378.171 C449.564,376.534 447.636,375.663 445.803,375.663 C444.632,375.663 443.064,376.116 440.985,377.454 C440.507,377.55 439.764,378.114 438.841,379.014 C435.025,382.088 429.844,387.715 422.856,397.601 C415.576,407.901 407.151,425.788 405.137,440.046 L404.655,443.451 L404.701,446.203 C404.739,448.498 405.156,450.377 405.947,451.835 C404.715,451.149 403.722,450.21 402.958,449.056 C402.803,448.169 402.718,447.226 402.701,446.236 C402.494,446.53 402.236,446.827 401.961,447.109 C401.677,446.376 401.458,445.587 401.303,444.748 L402.047,443.692 L401.368,440.881 C400.66,441.43 399.895,442.05 399.095,442.697 C394.176,446.68 387.439,452.135 380.183,452.135 M568.62,451.808 C567.082,451.078 566.087,450.095 565.504,449.062 L568.656,446.444 L568.517,450.882 L568.511,451.008 C568.511,451.271 568.546,451.54 568.62,451.808 M545.857,451.685 C544.261,450.871 543.081,449.701 542.329,448.004 L544.591,445.744 L545.239,449.559 C545.376,450.365 545.577,451.069 545.857,451.685 M429.59,451.61 C428.956,451.199 428.361,450.723 427.821,450.196 L428.451,449.764 L429.554,451.552 C429.566,451.571 429.578,451.591 429.59,451.61 M416.971,451.535 C412.327,451.535 409.084,448.47 409.084,444.084 C409.084,442.92 409.295,441.879 409.521,440.876 C409.752,442.031 410.308,442.967 411.096,443.659 C411.088,443.8 411.084,443.941 411.084,444.084 C411.084,447.572 413.647,449.535 416.971,449.535 C420.906,449.535 425.078,445.787 428.353,442.621 C431.697,435.361 438.551,425.23 438.551,424.572 C438.551,423.391 436.569,422.356 436.338,421.192 C436.676,420.605 436.869,420.227 436.869,420.117 C436.869,420.093 436.868,420.07 436.867,420.047 C438.815,417.483 445.482,410.838 449.451,410.838 C450.098,410.838 450.801,411.183 451.437,411.704 C451.214,412.182 450.896,412.813 450.506,413.559 C450.128,413.165 449.72,412.863 449.442,412.838 C446.514,412.838 440.362,418.789 438.582,421.075 C438.684,421.186 438.792,421.299 438.881,421.393 C439.586,422.133 440.551,423.144 440.551,424.572 C440.551,425.361 440.325,425.753 437.883,429.748 C435.621,433.451 432.202,439.046 430.17,443.457 L430.013,443.799 L429.744,444.059 C426.001,447.675 421.62,451.535 416.971,451.535 M530.273,451.48 C527.898,451.48 526.364,449.84 526.364,447.3 C526.364,446.581 526.595,445.587 527.036,444.317 C527.351,444.792 527.872,445.025 528.591,445.025 C528.694,445.025 528.8,445.019 528.909,445.008 C528.561,446.006 528.364,446.792 528.364,447.3 C528.364,448.771 529.018,449.48 530.273,449.48 C530.709,449.48 531.201,449.371 531.746,449.209 C534.961,448.336 543.355,439.724 544.336,438.851 C544.684,438.59 544.998,438.437 545.305,438.386 C549.744,427.447 559.445,411.711 563.188,405.931 L563.167,405.929 C562.929,405.929 560.64,406.204 558.362,406.463 C558.838,405.691 559.289,404.966 559.711,404.294 C559.801,404.284 559.889,404.274 559.973,404.264 C562.526,403.97 562.914,403.929 563.167,403.929 L563.996,403.929 L564.602,404.517 L565.745,405.661 L564.866,407.018 C560.216,414.2 551.253,429.047 547.158,439.138 L546.737,440.177 L545.686,440.35 L545.601,440.404 C545.434,440.559 545.137,440.85 544.74,441.236 C539.926,445.928 535.083,450.375 532.27,451.138 C531.492,451.371 530.862,451.48 530.273,451.48 M439.205,451.316 C434.768,451.316 434.424,448.368 434.424,447.465 C434.424,446.428 434.721,445.307 435.173,444.18 C435.606,444.625 436.314,444.8 437.057,444.847 C436.673,445.782 436.424,446.682 436.424,447.465 C436.424,448.99 437.842,449.316 439.205,449.316 C442.951,449.316 446.871,445.765 449.869,442.697 C454.76,425.732 477.24,411.709 488.036,411.709 C490.651,411.709 492.288,412.744 492.833,413.834 C495.138,411.277 497.767,411.165 500.421,411.163 C500.263,411.309 500.136,411.427 500.089,411.506 C499.705,412.055 499.314,412.618 498.915,413.196 C497.286,413.288 495.976,413.612 494.772,414.714 L494.827,414.702 L491.286,419.118 C481.647,431.138 473.843,438.694 468.993,442.915 C467.022,444.63 460.41,450.226 458.061,450.226 C456.861,450.226 455.568,449.31 455.568,447.3 C455.568,446.442 455.816,445.228 456.32,443.767 C456.339,443.77 456.359,443.771 456.379,443.771 C456.682,443.771 457.584,443.338 459.015,442.395 C458.04,444.562 457.568,446.306 457.568,447.3 C457.568,447.9 457.733,448.226 458.061,448.226 C459.367,448.226 471.849,440.16 489.725,417.867 C487.139,418.434 484.72,419.202 482.466,420.124 C483.32,419.134 484.188,418.11 485.073,417.049 C486.431,416.613 487.84,416.232 489.298,415.913 L491.406,415.452 L491.044,414.728 C490.878,414.395 489.924,413.709 488.036,413.709 C487.959,413.709 487.882,413.71 487.804,413.711 C487.884,413.611 487.963,413.513 488.044,413.412 C487.451,413.542 486.866,413.683 486.29,413.833 C481.292,414.5 474.2,417.794 467.93,422.447 C459.73,428.533 453.848,436.116 451.791,443.25 L451.651,443.735 L451.3,444.094 C447.811,447.666 443.645,451.316 439.205,451.316 M554.74,451.209 C550.88,451.209 550.07,448.668 550.07,446.537 C550.07,445.874 550.166,445.174 550.266,444.432 L550.305,444.146 C550.343,443.876 550.411,443.562 550.508,443.211 C550.745,444.156 551.333,444.569 552.248,444.702 C552.153,445.397 552.07,446.009 552.07,446.537 C552.07,448.662 552.996,449.209 554.74,449.209 C559.712,449.209 568.523,439.365 570.556,438.385 C570.556,438.534 570.555,438.66 570.555,438.757 C570.555,438.855 570.543,438.943 570.541,439.039 C571.357,439.142 571.969,439.415 571.969,440.121 C571.969,440.392 571.914,440.719 571.914,440.992 C571.914,441.496 572.037,441.956 572.236,442.362 C572.24,442.723 572.236,443.023 572.236,443.212 C572.236,443.31 572.224,443.398 572.223,443.494 C573.039,443.597 573.65,443.871 573.65,444.576 C573.65,444.847 573.596,445.174 573.596,445.447 C573.596,447.465 575.559,448.771 576.539,448.771 C585.695,448.771 593.164,445.337 593.164,442.885 C593.164,442.021 591.792,441.377 589.662,440.755 C590.445,440.227 590.999,439.686 591.277,439.167 C593.769,440.014 595.164,441.035 595.164,442.885 C595.164,447.532 585.349,450.771 576.539,450.771 C574.571,450.771 571.596,448.648 571.596,445.447 L571.596,445.43 L570.186,445.251 L570.223,443.453 L570.234,443.228 L570.237,443.015 C570.241,442.221 570.217,441.622 570.179,441.173 C569.641,441.636 569.024,442.191 568.471,442.686 C563.465,447.177 558.647,451.209 554.74,451.209 M451.059,451.169 C450.504,450.946 449.989,450.663 449.529,450.309 L450.355,449.683 L451.059,451.169 M366.521,450.787 C365.468,450.166 364.542,449.399 363.814,448.46 C363.79,448.172 363.777,447.877 363.777,447.572 C363.777,441.523 369.064,438.09 374.188,436.181 C372.132,435.246 371.358,433.953 371.075,432.3 C371.55,432.095 372.029,431.904 372.506,431.726 C371.864,431.434 371.348,431.107 370.932,430.746 C370.922,430.441 370.918,430.128 370.918,429.804 C370.918,419.066 389.014,411.383 398.279,411.383 C399.261,411.383 400.69,411.642 401.846,412.214 C401.676,412.861 401.426,413.484 401.109,414.076 C400.43,413.714 399.336,413.383 398.279,413.383 C389.821,413.383 372.918,420.482 372.918,429.804 C372.918,432.595 373.193,433.532 375.016,434.361 L377.685,435.576 C376.111,436.568 374.496,437.67 373.278,438.708 C368.298,440.909 365.777,443.886 365.777,447.572 C365.777,448.828 366.05,449.889 366.521,450.787 M502.942,444.741 L510.273,429.899 C511.632,427.149 513.125,424.287 514.702,421.377 C516.335,419.605 518.117,417.775 519.958,416.036 C517.097,421.076 514.379,426.104 512.066,430.785 C518.118,423.427 529.837,411.273 536.76,411.273 C537.959,411.273 539.867,411.818 540.684,412.144 C540.689,412.146 540.694,412.148 540.699,412.15 C540.551,412.627 540.302,413.258 539.972,414.013 C539.966,414.01 539.959,414.008 539.953,414.005 C539.216,413.711 537.577,413.273 536.76,413.273 C531.469,413.273 521.052,423.009 513.611,432.055 L508.275,438.543 C506.344,440.744 504.528,442.856 502.942,444.741 M600.628,440.237 C600.132,438.965 598.981,437.337 597.004,436.413 C592.268,434.21 587.542,433.342 584.092,432.707 C580.159,431.984 577.318,431.462 577.318,428.824 C577.318,427.937 578.015,426.784 579.212,425.531 C579.832,425.715 580.617,425.88 581.535,426.055 C580.136,427.292 579.318,428.323 579.318,428.824 C579.318,430.894 588.476,430.24 597.852,434.601 C599.282,435.27 600.41,436.252 601.235,437.314 C601.205,438.329 600.993,439.305 600.628,440.237 M379.858,432.349 C376.852,432.349 376.765,430.163 376.765,429.914 C376.765,428.659 377.846,427.204 379.307,425.81 C381.083,425.553 382.706,424.774 384.382,424.36 C381.736,426.221 378.765,428.641 378.765,429.914 C378.765,430.349 379.639,430.349 379.858,430.349 C382.801,430.349 385.252,428.551 388.033,428.551 C388.36,428.551 388.795,428.551 389.123,428.66 C389.203,428.702 389.286,428.757 389.372,428.823 C388.958,429.375 388.321,429.879 387.877,430.254 C387.73,430.375 387.581,430.486 387.43,430.589 C386.566,430.694 385.656,431.002 384.704,431.325 C383.286,431.805 381.679,432.349 379.858,432.349 M573.14,432.038 C572.288,431.59 571.509,431.049 570.871,430.373 L570.871,430.349 C570.871,417.215 595.615,408.929 603.9,408.929 C607.054,408.929 608.95,409.503 610.089,410.259 C610.017,411.046 609.835,411.849 609.6,412.547 C609.537,412.436 609.454,412.327 609.346,412.218 C608.865,411.737 607.519,410.929 603.9,410.929 C600.023,410.929 591.966,413.011 585.193,416.493 C580.592,418.859 572.871,423.805 572.871,430.349 C572.871,430.982 572.962,431.54 573.14,432.038 M392.564,419.298 C391.518,419.298 391.021,418.985 390.79,418.393 C391.135,418.253 391.488,418.118 391.85,417.994 L395.341,416.79 L394.783,419.011 C394.059,419.198 393.313,419.298 392.564,419.298 M600.094,418.318 C600.033,418.318 599.974,418.317 599.918,418.315 C599.977,418.18 600.033,418.031 600.086,417.867 C599.617,417.892 599.148,417.934 598.679,417.991 C598.244,417.703 598.101,417.295 597.641,417.064 C597.317,416.925 597.15,416.589 597.107,416.224 C598.08,416.041 599.042,415.92 599.98,415.87 L602.877,415.715 L602.123,418.065 C601.43,418.227 600.744,418.318 600.094,418.318 M552.078,402.457 L551.586,402.457 C551.163,402.457 550.627,402.415 550.073,402.309 C550.247,402.078 550.396,401.834 550.488,401.57 C551.033,399.881 555.504,397.484 557.303,397.32 C559.644,397.156 561.988,397.101 564.332,396.992 C569.457,396.775 564.115,396.992 569.238,396.775 C571.582,393.396 573.926,389.744 576.705,386.691 C577.359,385.82 577.469,385.601 578.613,385.601 C579.484,385.601 580.303,385.275 581.174,385.275 C581.396,385.275 581.582,385.29 581.741,385.314 C581.364,385.949 580.931,386.653 580.488,387.361 C580.418,387.374 580.346,387.388 580.272,387.402 C579.789,387.496 579.24,387.601 578.613,387.601 L578.522,387.602 L578.393,387.775 L578.305,387.892 L578.247,387.967 L578.184,388.038 C576.002,390.434 574.052,393.288 572.165,396.046 C571.735,396.674 571.309,397.299 570.882,397.915 L570.315,398.731 L569.323,398.773 C567.463,398.852 567.001,398.873 566.909,398.877 L566.908,398.862 C566.775,398.881 566.631,398.895 566.478,398.902 L564.417,398.99 C563.639,399.026 562.853,399.057 562.066,399.088 C560.546,399.147 558.973,399.208 557.443,399.315 C556.224,399.426 552.853,401.354 552.375,402.23 C552.348,402.305 552.319,402.378 552.289,402.45 C552.205,402.454 552.134,402.457 552.078,402.457 M587.544,399.112 C587.284,398.762 587.055,398.459 586.856,398.333 C586.662,398.301 586.051,398.23 584.555,398.23 C583.801,398.23 582.102,398.333 579.508,398.535 L579.312,398.55 L575.449,398.848 L577.443,395.527 C577.646,395.19 578.077,394.517 578.616,393.677 C578.909,393.221 579.302,392.607 579.73,391.933 C580.572,391.874 581.482,391.818 582.185,391.791 C580.921,393.812 579.564,395.881 579.158,396.557 C579.867,396.501 583.246,396.23 584.555,396.23 C585.861,396.23 587.115,396.285 587.551,396.447 C588.276,396.749 588.717,397.336 589.17,397.947 C588.771,398.457 588.182,398.838 587.544,399.112" id="Fill-30" fill="#40BDE2" sketch:type="MSShapeGroup"></path>
            <path d="M414.71,419.31 C416.457,415.002 418.509,410.657 420.513,407.079 C421.687,404.965 426.145,398.377 430.661,392.309 C436.743,384.138 439.579,381.345 441.136,380.39 C440.591,381.795 439.653,383.614 438.437,385.71 C432.749,392.245 423.869,405.155 422.258,408.056 C421.467,409.469 420.676,410.987 419.904,412.565 C417.919,415.198 416.126,417.52 414.71,419.31" id="Fill-31" fill="#163B48" sketch:type="MSShapeGroup"></path>
            <path d="M409.049,435.681 L412.292,425.853 C412.984,423.756 413.806,421.538 414.71,419.31 C416.126,417.52 417.919,415.198 419.904,412.565 C417.697,417.077 415.644,422.078 414.192,426.48 C419.479,420.211 443.35,388.599 443.35,382.713 C443.35,382.277 443.242,381.894 442.805,381.894 C442.052,381.894 440.443,383.406 438.437,385.71 C439.653,383.614 440.591,381.795 441.136,380.39 C441.945,379.894 442.41,379.894 442.805,379.894 C444.03,379.894 445.35,380.776 445.35,382.713 C445.35,390.118 418.12,424.923 415.72,427.769 L409.049,435.681" id="Fill-32" fill="#40BDE2" sketch:type="MSShapeGroup"></path>
            <path d="M438.316,477.607 L71.315,477.607 C52.273,477.607 35.017,470.34 22.525,458.622 C10.033,446.901 2.315,430.75 2.314,412.939 C2.315,395.129 10.033,378.979 22.525,367.258 C35.017,355.54 52.273,348.273 71.315,348.273 L133.682,348.273 L132.75,346.751 C111.034,311.271 99.599,270.679 99.599,228.761 C99.6,168.282 123.143,111.445 165.905,68.681 C208.67,25.919 265.507,2.376 325.982,2.375 C386.458,2.376 443.296,25.919 486.059,68.681 C528.823,111.445 552.367,168.282 552.369,228.761 C552.369,270.677 540.936,311.271 519.216,346.751 L518.285,348.273 L580.65,348.273 C599.693,348.273 616.949,355.54 629.44,367.258 C641.932,378.979 649.649,395.129 649.65,412.939 C649.65,430.75 641.932,446.901 629.44,458.622 C616.949,470.34 599.693,477.607 580.65,477.607 L471.65,477.607 C471.098,477.607 470.65,478.055 470.65,478.607 C470.65,479.159 471.098,479.607 471.65,479.607 L580.65,479.607 C600.205,479.607 617.95,472.144 630.809,460.081 C643.668,448.02 651.651,431.337 651.65,412.939 C651.651,394.542 643.668,377.859 630.809,365.799 C617.95,353.736 600.205,346.273 580.65,346.273 L520.069,346.273 L520.069,347.273 L520.922,347.795 C542.834,312.002 554.369,271.041 554.369,228.761 C554.371,167.762 530.608,110.396 487.474,67.267 C444.345,24.135 386.979,0.373 325.982,0.375 C264.987,0.373 207.621,24.135 164.491,67.267 C121.359,110.396 97.597,167.762 97.599,228.761 C97.598,271.043 109.136,312.002 131.045,347.795 L131.897,347.273 L131.897,346.273 L71.315,346.273 C51.761,346.273 34.016,353.736 21.157,365.799 C8.297,377.859 0.314,394.542 0.314,412.939 C0.314,431.337 8.297,448.02 21.157,460.081 C34.016,472.144 51.76,479.607 71.315,479.607 L438.316,479.607 C438.869,479.607 439.316,479.159 439.316,478.607 C439.316,478.055 438.869,477.607 438.316,477.607" id="Fill-33" fill="#D13986" sketch:type="MSShapeGroup"></path>
            <path d="M481.65,469.607 L580.65,469.607 C597.445,469.607 612.688,463.268 623.737,453.017 C634.786,442.768 641.651,428.584 641.65,412.939 C641.651,397.295 634.786,383.111 623.737,372.863 C612.688,362.612 597.445,356.273 580.65,356.273 L503.442,356.273 L507.607,350.05 C531.658,314.109 544.37,272.166 544.369,228.761 C544.367,108.339 446.404,10.376 325.982,10.375 C205.564,10.376 107.6,108.339 107.599,228.761 C107.598,272.168 120.312,314.111 144.359,350.05 L148.525,356.273 L71.315,356.273 C54.52,356.273 39.278,362.612 28.228,372.863 C17.179,383.111 10.314,397.295 10.314,412.939 C10.314,428.584 17.179,442.769 28.228,453.017 C39.278,463.268 54.52,469.607 71.315,469.607 L440.316,469.607 C440.869,469.607 441.316,469.159 441.316,468.607 C441.316,468.055 440.869,467.607 440.316,467.607 L71.315,467.607 C55.027,467.607 40.269,461.459 29.589,451.551 C18.909,441.639 12.315,427.99 12.314,412.939 C12.315,397.89 18.908,384.241 29.589,374.329 C40.269,364.421 55.026,358.273 71.315,358.273 L152.27,358.273 L146.021,348.938 C122.194,313.326 109.599,271.777 109.599,228.761 C109.599,169.101 133.864,115.01 173.049,75.825 C212.234,36.64 266.324,12.375 325.982,12.375 C385.642,12.375 439.733,36.64 478.919,75.825 C518.103,115.01 542.369,169.101 542.369,228.761 C542.369,271.775 529.776,313.324 505.945,348.938 L499.697,358.273 L580.65,358.273 C596.939,358.273 611.697,364.421 622.377,374.329 C633.057,384.241 639.649,397.889 639.65,412.939 C639.649,427.99 633.057,441.639 622.377,451.551 C611.697,461.459 596.939,467.607 580.65,467.607 L481.65,467.607 C481.098,467.607 480.65,468.055 480.65,468.607 C480.65,469.159 481.098,469.607 481.65,469.607" id="Fill-34" fill="#D13986" sketch:type="MSShapeGroup"></path>
            <path d="M475.65,474.607 L580.65,474.607 C598.782,474.607 615.274,467.684 627.239,456.517 C639.204,445.352 646.651,429.92 646.65,412.939 C646.651,395.959 639.204,380.527 627.239,369.363 C615.274,358.196 598.782,351.273 580.65,351.273 L510.932,351.273 L510.932,352.273 L511.763,352.829 C535.511,317.342 549.37,274.669 549.369,228.761 C549.368,105.387 449.353,5.375 325.982,5.375 C202.61,5.375 102.599,105.387 102.599,228.761 C102.598,274.669 116.456,317.342 140.203,352.829 L141.034,352.273 L141.034,351.273 L71.315,351.273 C53.184,351.273 36.691,358.196 24.726,369.363 C12.761,380.527 5.314,395.959 5.314,412.939 C5.314,429.92 12.761,445.352 24.726,456.517 C36.691,467.684 53.184,474.607 71.315,474.607 L438.316,474.607 C438.869,474.607 439.316,474.159 439.316,473.607 C439.316,473.055 438.869,472.607 438.316,472.607 L71.315,472.607 C53.697,472.607 37.689,465.879 26.091,455.055 C14.493,444.227 7.315,429.326 7.314,412.939 C7.315,396.554 14.493,381.653 26.091,370.825 C37.689,360.001 53.697,353.273 71.315,353.273 L142.907,353.273 L141.865,351.717 C118.331,316.544 104.599,274.264 104.599,228.761 C104.599,167.624 129.376,112.283 169.44,72.217 C209.506,32.152 264.846,7.375 325.982,7.375 C387.119,7.375 442.459,32.152 482.526,72.217 C522.59,112.283 547.369,167.623 547.369,228.761 C547.369,274.264 533.637,316.544 510.101,351.717 L509.059,353.273 L580.65,353.273 C598.269,353.273 614.277,360.001 625.874,370.825 C637.472,381.653 644.65,396.553 644.65,412.939 C644.65,429.326 637.472,444.227 625.874,455.055 C614.277,465.879 598.269,472.607 580.65,472.607 L475.65,472.607 C475.098,472.607 474.65,473.055 474.65,473.607 C474.65,474.159 475.098,474.607 475.65,474.607" id="Fill-35" fill="#D13986" sketch:type="MSShapeGroup"></path>
        </g>
    </g>
</svg>